<mxfile host="app.diagrams.net" modified="2023-07-18T05:15:03.026Z" agent="Mozilla/5.0 (Windows NT 10.0; Win64; x64) AppleWebKit/537.36 (KHTML, like Gecko) Chrome/114.0.0.0 Safari/537.36" etag="M7zs1RfZflUwVOCP8ILE" version="21.6.2" type="github">
  <diagram id="31b32b95-0358-9bc7-6ba0-a27c054ed1a7" name="Page-1">
    <mxGraphModel dx="-860" dy="481" grid="1" gridSize="10" guides="1" tooltips="1" connect="1" arrows="1" fold="1" page="1" pageScale="1" pageWidth="827" pageHeight="1169" background="none" math="0" shadow="0">
      <root>
        <mxCell id="0" />
        <mxCell id="1" parent="0" />
        <mxCell id="oQpSgmVscmDd02kqlDEu-95" value="&lt;font size=&quot;3&quot;&gt;Api gateway&lt;/font&gt;" style="rounded=1;whiteSpace=wrap;html=1;arcSize=16;" parent="1" vertex="1">
          <mxGeometry x="1680" y="440" width="110" height="200" as="geometry" />
        </mxCell>
        <mxCell id="oQpSgmVscmDd02kqlDEu-96" value="&lt;font size=&quot;3&quot;&gt;Users service&lt;/font&gt;" style="rounded=1;whiteSpace=wrap;html=1;" parent="1" vertex="1">
          <mxGeometry x="2391" y="310" width="120" height="60" as="geometry" />
        </mxCell>
        <mxCell id="oQpSgmVscmDd02kqlDEu-97" value="&lt;font size=&quot;3&quot;&gt;Posts service&lt;/font&gt;" style="rounded=1;whiteSpace=wrap;html=1;" parent="1" vertex="1">
          <mxGeometry x="2380" y="410" width="120" height="60" as="geometry" />
        </mxCell>
        <mxCell id="oQpSgmVscmDd02kqlDEu-98" value="Comments Service" style="rounded=1;whiteSpace=wrap;html=1;" parent="1" vertex="1">
          <mxGeometry x="2391" y="525" width="120" height="60" as="geometry" />
        </mxCell>
        <mxCell id="oQpSgmVscmDd02kqlDEu-99" value="Likes Service" style="rounded=1;whiteSpace=wrap;html=1;" parent="1" vertex="1">
          <mxGeometry x="2391" y="615" width="120" height="60" as="geometry" />
        </mxCell>
        <mxCell id="oQpSgmVscmDd02kqlDEu-100" value="Feeds" style="rounded=1;whiteSpace=wrap;html=1;" parent="1" vertex="1">
          <mxGeometry x="2180" y="500" width="120" height="60" as="geometry" />
        </mxCell>
        <mxCell id="oQpSgmVscmDd02kqlDEu-101" value="Media(s3)" style="rounded=1;whiteSpace=wrap;html=1;" parent="1" vertex="1">
          <mxGeometry x="1705" y="880" width="120" height="60" as="geometry" />
        </mxCell>
        <mxCell id="oQpSgmVscmDd02kqlDEu-102" value="Notification Service" style="rounded=1;whiteSpace=wrap;html=1;direction=west;" parent="1" vertex="1">
          <mxGeometry x="2290" y="810" width="120" height="60" as="geometry" />
        </mxCell>
        <mxCell id="oQpSgmVscmDd02kqlDEu-103" value="Search service" style="rounded=1;whiteSpace=wrap;html=1;" parent="1" vertex="1">
          <mxGeometry x="1910" y="330" width="120" height="60" as="geometry" />
        </mxCell>
        <mxCell id="oQpSgmVscmDd02kqlDEu-104" value="Analytics&amp;nbsp; service" style="rounded=1;whiteSpace=wrap;html=1;" parent="1" vertex="1">
          <mxGeometry x="2200" y="120" width="120" height="60" as="geometry" />
        </mxCell>
        <mxCell id="oQpSgmVscmDd02kqlDEu-105" value="Chat service" style="rounded=1;whiteSpace=wrap;html=1;" parent="1" vertex="1">
          <mxGeometry x="1860" y="880" width="120" height="60" as="geometry" />
        </mxCell>
        <mxCell id="oQpSgmVscmDd02kqlDEu-106" value="Saved Service" style="rounded=1;whiteSpace=wrap;html=1;" parent="1" vertex="1">
          <mxGeometry x="2020" y="890" width="120" height="60" as="geometry" />
        </mxCell>
        <mxCell id="oQpSgmVscmDd02kqlDEu-108" value="" style="html=1;labelBackgroundColor=#ffffff;startArrow=classic;startFill=1;startSize=6;endArrow=classic;endFill=1;endSize=6;jettySize=auto;orthogonalLoop=1;strokeWidth=1;fontSize=14;rounded=0;entryX=0;entryY=0.5;entryDx=0;entryDy=0;" parent="1" source="oQpSgmVscmDd02kqlDEu-95" target="oQpSgmVscmDd02kqlDEu-100" edge="1">
          <mxGeometry width="60" height="60" relative="1" as="geometry">
            <mxPoint x="1810" y="570" as="sourcePoint" />
            <mxPoint x="1960" y="560" as="targetPoint" />
          </mxGeometry>
        </mxCell>
        <mxCell id="oQpSgmVscmDd02kqlDEu-110" value="" style="html=1;labelBackgroundColor=#ffffff;startArrow=classic;startFill=1;startSize=6;endArrow=classic;endFill=1;endSize=6;jettySize=auto;orthogonalLoop=1;strokeWidth=1;fontSize=14;rounded=0;exitX=1;exitY=0.25;exitDx=0;exitDy=0;entryX=0.5;entryY=1;entryDx=0;entryDy=0;" parent="1" source="oQpSgmVscmDd02kqlDEu-95" target="oQpSgmVscmDd02kqlDEu-104" edge="1">
          <mxGeometry width="60" height="60" relative="1" as="geometry">
            <mxPoint x="2100" y="680" as="sourcePoint" />
            <mxPoint x="2160" y="620" as="targetPoint" />
            <Array as="points">
              <mxPoint x="1850" y="180" />
            </Array>
          </mxGeometry>
        </mxCell>
        <mxCell id="oQpSgmVscmDd02kqlDEu-111" value="" style="html=1;labelBackgroundColor=#ffffff;startArrow=classic;startFill=1;startSize=6;endArrow=classic;endFill=1;endSize=6;jettySize=auto;orthogonalLoop=1;strokeWidth=1;fontSize=14;rounded=0;entryX=0;entryY=0.75;entryDx=0;entryDy=0;exitX=1;exitY=0.5;exitDx=0;exitDy=0;" parent="1" source="oQpSgmVscmDd02kqlDEu-100" target="oQpSgmVscmDd02kqlDEu-96" edge="1">
          <mxGeometry width="60" height="60" relative="1" as="geometry">
            <mxPoint x="2100" y="680" as="sourcePoint" />
            <mxPoint x="2160" y="620" as="targetPoint" />
          </mxGeometry>
        </mxCell>
        <mxCell id="oQpSgmVscmDd02kqlDEu-112" value="" style="html=1;labelBackgroundColor=#ffffff;startArrow=classic;startFill=1;startSize=6;endArrow=classic;endFill=1;endSize=6;jettySize=auto;orthogonalLoop=1;strokeWidth=1;fontSize=14;rounded=0;entryX=0;entryY=0.5;entryDx=0;entryDy=0;exitX=1;exitY=0.5;exitDx=0;exitDy=0;" parent="1" source="oQpSgmVscmDd02kqlDEu-100" target="oQpSgmVscmDd02kqlDEu-97" edge="1">
          <mxGeometry width="60" height="60" relative="1" as="geometry">
            <mxPoint x="2100" y="680" as="sourcePoint" />
            <mxPoint x="2160" y="620" as="targetPoint" />
          </mxGeometry>
        </mxCell>
        <mxCell id="oQpSgmVscmDd02kqlDEu-113" value="" style="html=1;labelBackgroundColor=#ffffff;startArrow=classic;startFill=1;startSize=6;endArrow=classic;endFill=1;endSize=6;jettySize=auto;orthogonalLoop=1;strokeWidth=1;fontSize=14;rounded=0;exitX=1;exitY=0.5;exitDx=0;exitDy=0;" parent="1" source="oQpSgmVscmDd02kqlDEu-100" target="oQpSgmVscmDd02kqlDEu-98" edge="1">
          <mxGeometry width="60" height="60" relative="1" as="geometry">
            <mxPoint x="2100" y="680" as="sourcePoint" />
            <mxPoint x="2160" y="620" as="targetPoint" />
          </mxGeometry>
        </mxCell>
        <mxCell id="oQpSgmVscmDd02kqlDEu-114" value="" style="html=1;labelBackgroundColor=#ffffff;startArrow=classic;startFill=1;startSize=6;endArrow=classic;endFill=1;endSize=6;jettySize=auto;orthogonalLoop=1;strokeWidth=1;fontSize=14;rounded=0;exitX=1;exitY=0.75;exitDx=0;exitDy=0;" parent="1" source="oQpSgmVscmDd02kqlDEu-100" target="oQpSgmVscmDd02kqlDEu-99" edge="1">
          <mxGeometry width="60" height="60" relative="1" as="geometry">
            <mxPoint x="2100" y="680" as="sourcePoint" />
            <mxPoint x="2160" y="620" as="targetPoint" />
          </mxGeometry>
        </mxCell>
        <mxCell id="oQpSgmVscmDd02kqlDEu-115" value="" style="html=1;labelBackgroundColor=#ffffff;startArrow=classic;startFill=1;startSize=6;endArrow=classic;endFill=1;endSize=6;jettySize=auto;orthogonalLoop=1;strokeWidth=1;fontSize=14;rounded=0;exitX=1.007;exitY=0.346;exitDx=0;exitDy=0;entryX=0.25;entryY=0;entryDx=0;entryDy=0;exitPerimeter=0;" parent="1" source="oQpSgmVscmDd02kqlDEu-95" target="oQpSgmVscmDd02kqlDEu-103" edge="1">
          <mxGeometry width="60" height="60" relative="1" as="geometry">
            <mxPoint x="2100" y="680" as="sourcePoint" />
            <mxPoint x="2160" y="620" as="targetPoint" />
          </mxGeometry>
        </mxCell>
        <mxCell id="oQpSgmVscmDd02kqlDEu-116" value="" style="html=1;labelBackgroundColor=#ffffff;startArrow=classic;startFill=1;startSize=6;endArrow=classic;endFill=1;endSize=6;jettySize=auto;orthogonalLoop=1;strokeWidth=1;fontSize=14;rounded=0;entryX=0.5;entryY=0;entryDx=0;entryDy=0;" parent="1" source="oQpSgmVscmDd02kqlDEu-95" target="oQpSgmVscmDd02kqlDEu-106" edge="1">
          <mxGeometry width="60" height="60" relative="1" as="geometry">
            <mxPoint x="2100" y="680" as="sourcePoint" />
            <mxPoint x="2160" y="620" as="targetPoint" />
          </mxGeometry>
        </mxCell>
        <mxCell id="oQpSgmVscmDd02kqlDEu-117" value="" style="html=1;labelBackgroundColor=#ffffff;startArrow=classic;startFill=1;startSize=6;endArrow=classic;endFill=1;endSize=6;jettySize=auto;orthogonalLoop=1;strokeWidth=1;fontSize=14;rounded=0;" parent="1" target="oQpSgmVscmDd02kqlDEu-101" edge="1">
          <mxGeometry width="60" height="60" relative="1" as="geometry">
            <mxPoint x="1770" y="640" as="sourcePoint" />
            <mxPoint x="2160" y="620" as="targetPoint" />
          </mxGeometry>
        </mxCell>
        <mxCell id="oQpSgmVscmDd02kqlDEu-118" value="" style="html=1;labelBackgroundColor=#ffffff;startArrow=classic;startFill=1;startSize=6;endArrow=classic;endFill=1;endSize=6;jettySize=auto;orthogonalLoop=1;strokeWidth=1;fontSize=14;rounded=0;" parent="1" source="oQpSgmVscmDd02kqlDEu-95" target="oQpSgmVscmDd02kqlDEu-105" edge="1">
          <mxGeometry width="60" height="60" relative="1" as="geometry">
            <mxPoint x="2100" y="680" as="sourcePoint" />
            <mxPoint x="2160" y="620" as="targetPoint" />
          </mxGeometry>
        </mxCell>
        <mxCell id="oQpSgmVscmDd02kqlDEu-120" value="" style="html=1;labelBackgroundColor=#ffffff;startArrow=classic;startFill=1;startSize=6;endArrow=classic;endFill=1;endSize=6;jettySize=auto;orthogonalLoop=1;strokeWidth=1;fontSize=14;rounded=0;exitX=1.024;exitY=0.403;exitDx=0;exitDy=0;exitPerimeter=0;" parent="1" source="oQpSgmVscmDd02kqlDEu-95" target="oQpSgmVscmDd02kqlDEu-102" edge="1">
          <mxGeometry width="60" height="60" relative="1" as="geometry">
            <mxPoint x="2100" y="680" as="sourcePoint" />
            <mxPoint x="2160" y="620" as="targetPoint" />
          </mxGeometry>
        </mxCell>
        <mxCell id="oQpSgmVscmDd02kqlDEu-122" value="Precomputing and caching" style="text;html=1;align=center;verticalAlign=middle;resizable=0;points=[];autosize=1;strokeColor=none;fillColor=none;" parent="1" vertex="1">
          <mxGeometry x="2135" y="460" width="170" height="30" as="geometry" />
        </mxCell>
        <mxCell id="oQpSgmVscmDd02kqlDEu-123" value="Redis" style="shape=datastore;whiteSpace=wrap;html=1;" parent="1" vertex="1">
          <mxGeometry x="2180" y="400" width="50" height="60" as="geometry" />
        </mxCell>
        <mxCell id="oQpSgmVscmDd02kqlDEu-124" value="" style="html=1;labelBackgroundColor=#ffffff;endArrow=none;endFill=0;jettySize=auto;orthogonalLoop=1;strokeWidth=1;dashed=1;fontSize=14;rounded=0;entryX=0;entryY=0.5;entryDx=0;entryDy=0;" parent="1" source="oQpSgmVscmDd02kqlDEu-100" target="oQpSgmVscmDd02kqlDEu-123" edge="1">
          <mxGeometry width="60" height="60" relative="1" as="geometry">
            <mxPoint x="2100" y="680" as="sourcePoint" />
            <mxPoint x="2160" y="620" as="targetPoint" />
          </mxGeometry>
        </mxCell>
        <mxCell id="oQpSgmVscmDd02kqlDEu-125" value="Neo4j" style="shape=datastore;whiteSpace=wrap;html=1;" parent="1" vertex="1">
          <mxGeometry x="2560" y="290" width="60" height="60" as="geometry" />
        </mxCell>
        <mxCell id="oQpSgmVscmDd02kqlDEu-126" value="" style="html=1;labelBackgroundColor=#ffffff;endArrow=none;endFill=0;jettySize=auto;orthogonalLoop=1;strokeWidth=1;dashed=1;fontSize=14;rounded=0;entryX=0;entryY=0.3;entryDx=0;entryDy=0;exitX=1;exitY=0;exitDx=0;exitDy=0;" parent="1" source="oQpSgmVscmDd02kqlDEu-96" target="oQpSgmVscmDd02kqlDEu-125" edge="1">
          <mxGeometry width="60" height="60" relative="1" as="geometry">
            <mxPoint x="2100" y="680" as="sourcePoint" />
            <mxPoint x="2160" y="620" as="targetPoint" />
          </mxGeometry>
        </mxCell>
        <mxCell id="oQpSgmVscmDd02kqlDEu-127" value="InfluxDb" style="shape=datastore;whiteSpace=wrap;html=1;" parent="1" vertex="1">
          <mxGeometry x="2150" y="50" width="60" height="60" as="geometry" />
        </mxCell>
        <mxCell id="oQpSgmVscmDd02kqlDEu-128" value="" style="html=1;labelBackgroundColor=#ffffff;endArrow=none;endFill=0;jettySize=auto;orthogonalLoop=1;strokeWidth=1;dashed=1;fontSize=14;rounded=0;entryX=0.5;entryY=1;entryDx=0;entryDy=0;exitX=0.5;exitY=0;exitDx=0;exitDy=0;" parent="1" source="oQpSgmVscmDd02kqlDEu-104" target="oQpSgmVscmDd02kqlDEu-127" edge="1">
          <mxGeometry width="60" height="60" relative="1" as="geometry">
            <mxPoint x="2100" y="560" as="sourcePoint" />
            <mxPoint x="2160" y="500" as="targetPoint" />
          </mxGeometry>
        </mxCell>
        <mxCell id="oQpSgmVscmDd02kqlDEu-129" value="MongoDB" style="shape=datastore;whiteSpace=wrap;html=1;" parent="1" vertex="1">
          <mxGeometry x="2560" y="390" width="60" height="60" as="geometry" />
        </mxCell>
        <mxCell id="oQpSgmVscmDd02kqlDEu-130" value="" style="html=1;labelBackgroundColor=#ffffff;endArrow=none;endFill=0;jettySize=auto;orthogonalLoop=1;strokeWidth=1;dashed=1;fontSize=14;rounded=0;entryX=0;entryY=0.7;entryDx=0;entryDy=0;exitX=1;exitY=0.5;exitDx=0;exitDy=0;" parent="1" source="oQpSgmVscmDd02kqlDEu-97" target="oQpSgmVscmDd02kqlDEu-129" edge="1">
          <mxGeometry width="60" height="60" relative="1" as="geometry">
            <mxPoint x="2360" y="330" as="sourcePoint" />
            <mxPoint x="2420" y="348" as="targetPoint" />
          </mxGeometry>
        </mxCell>
        <mxCell id="oQpSgmVscmDd02kqlDEu-131" value="Redis" style="shape=datastore;whiteSpace=wrap;html=1;" parent="1" vertex="1">
          <mxGeometry x="2050" y="250" width="60" height="60" as="geometry" />
        </mxCell>
        <mxCell id="oQpSgmVscmDd02kqlDEu-132" value="" style="html=1;labelBackgroundColor=#ffffff;endArrow=none;endFill=0;jettySize=auto;orthogonalLoop=1;strokeWidth=1;dashed=1;fontSize=14;rounded=0;entryX=0.15;entryY=0.95;entryDx=0;entryDy=0;entryPerimeter=0;exitX=0.5;exitY=0;exitDx=0;exitDy=0;" parent="1" source="oQpSgmVscmDd02kqlDEu-103" target="oQpSgmVscmDd02kqlDEu-131" edge="1">
          <mxGeometry width="60" height="60" relative="1" as="geometry">
            <mxPoint x="2100" y="560" as="sourcePoint" />
            <mxPoint x="2160" y="500" as="targetPoint" />
          </mxGeometry>
        </mxCell>
        <mxCell id="oQpSgmVscmDd02kqlDEu-133" value="Caching" style="text;html=1;align=center;verticalAlign=middle;resizable=0;points=[];autosize=1;strokeColor=none;fillColor=none;" parent="1" vertex="1">
          <mxGeometry x="1950" y="290" width="70" height="30" as="geometry" />
        </mxCell>
        <mxCell id="oQpSgmVscmDd02kqlDEu-134" value="" style="outlineConnect=0;dashed=0;verticalLabelPosition=bottom;verticalAlign=top;align=center;html=1;shape=mxgraph.aws3.queue;fillColor=#D9A741;gradientColor=none;direction=north;" parent="1" vertex="1">
          <mxGeometry x="2246" y="220" width="44" height="80" as="geometry" />
        </mxCell>
        <mxCell id="oQpSgmVscmDd02kqlDEu-135" value="RabbitMq" style="text;html=1;align=center;verticalAlign=middle;resizable=0;points=[];autosize=1;strokeColor=none;fillColor=none;" parent="1" vertex="1">
          <mxGeometry x="2300" y="245" width="70" height="30" as="geometry" />
        </mxCell>
        <mxCell id="oQpSgmVscmDd02kqlDEu-136" value="" style="outlineConnect=0;dashed=0;verticalLabelPosition=bottom;verticalAlign=top;align=center;html=1;shape=mxgraph.aws3.queue;fillColor=#D9A741;gradientColor=none;direction=north;rotation=-180;" parent="1" vertex="1">
          <mxGeometry x="2306" y="720" width="44" height="80" as="geometry" />
        </mxCell>
        <mxCell id="oQpSgmVscmDd02kqlDEu-138" value="RabbitMQ" style="text;html=1;align=center;verticalAlign=middle;resizable=0;points=[];autosize=1;strokeColor=none;fillColor=none;" parent="1" vertex="1">
          <mxGeometry x="2360" y="745" width="80" height="30" as="geometry" />
        </mxCell>
        <mxCell id="oQpSgmVscmDd02kqlDEu-139" value="CDN" style="text;html=1;align=center;verticalAlign=middle;resizable=0;points=[];autosize=1;strokeColor=none;fillColor=none;" parent="1" vertex="1">
          <mxGeometry x="1790" y="840" width="50" height="30" as="geometry" />
        </mxCell>
        <mxCell id="oQpSgmVscmDd02kqlDEu-142" value="Admin&amp;nbsp; Services" style="rounded=1;whiteSpace=wrap;html=1;" parent="1" vertex="1">
          <mxGeometry x="2160" y="890" width="120" height="60" as="geometry" />
        </mxCell>
        <mxCell id="oQpSgmVscmDd02kqlDEu-143" value="" style="html=1;labelBackgroundColor=#ffffff;startArrow=classic;startFill=1;startSize=6;endArrow=classic;endFill=1;endSize=6;jettySize=auto;orthogonalLoop=1;strokeWidth=1;fontSize=14;rounded=0;exitX=1.024;exitY=0.403;exitDx=0;exitDy=0;exitPerimeter=0;entryX=0.5;entryY=0;entryDx=0;entryDy=0;" parent="1" target="oQpSgmVscmDd02kqlDEu-142" edge="1">
          <mxGeometry width="60" height="60" relative="1" as="geometry">
            <mxPoint x="1803" y="531" as="sourcePoint" />
            <mxPoint x="2308" y="820" as="targetPoint" />
          </mxGeometry>
        </mxCell>
        <mxCell id="oQpSgmVscmDd02kqlDEu-144" value="Redis&lt;br&gt;Session&amp;nbsp; DB" style="shape=cylinder3;whiteSpace=wrap;html=1;boundedLbl=1;backgroundOutline=1;size=15;" parent="1" vertex="1">
          <mxGeometry x="1920" y="410" width="60" height="80" as="geometry" />
        </mxCell>
        <mxCell id="oQpSgmVscmDd02kqlDEu-145" value="" style="endArrow=classic;html=1;rounded=0;entryX=0;entryY=0.5;entryDx=0;entryDy=0;entryPerimeter=0;" parent="1" source="oQpSgmVscmDd02kqlDEu-95" target="oQpSgmVscmDd02kqlDEu-144" edge="1">
          <mxGeometry relative="1" as="geometry">
            <mxPoint x="1880" y="510" as="sourcePoint" />
            <mxPoint x="1980" y="510" as="targetPoint" />
          </mxGeometry>
        </mxCell>
        <mxCell id="oQpSgmVscmDd02kqlDEu-146" value="Label" style="edgeLabel;resizable=0;html=1;align=center;verticalAlign=middle;" parent="oQpSgmVscmDd02kqlDEu-145" connectable="0" vertex="1">
          <mxGeometry relative="1" as="geometry" />
        </mxCell>
        <mxCell id="oQpSgmVscmDd02kqlDEu-147" value="" style="outlineConnect=0;dashed=0;verticalLabelPosition=bottom;verticalAlign=top;align=center;html=1;shape=mxgraph.aws3.queue;fillColor=#D9A741;gradientColor=none;direction=north;rotation=70;" parent="1" vertex="1">
          <mxGeometry x="1850" y="482.5" width="30" height="45" as="geometry" />
        </mxCell>
        <mxCell id="oQpSgmVscmDd02kqlDEu-149" value="" style="html=1;labelBackgroundColor=#ffffff;endArrow=none;endFill=0;jettySize=auto;orthogonalLoop=1;strokeWidth=1;dashed=1;fontSize=14;rounded=0;exitX=1.013;exitY=0.436;exitDx=0;exitDy=0;exitPerimeter=0;entryX=0;entryY=0.5;entryDx=0;entryDy=0;entryPerimeter=0;" parent="1" source="oQpSgmVscmDd02kqlDEu-95" target="oQpSgmVscmDd02kqlDEu-147" edge="1">
          <mxGeometry width="60" height="60" relative="1" as="geometry">
            <mxPoint x="1900" y="540" as="sourcePoint" />
            <mxPoint x="1960" y="480" as="targetPoint" />
          </mxGeometry>
        </mxCell>
        <mxCell id="oQpSgmVscmDd02kqlDEu-150" value="" style="html=1;labelBackgroundColor=#ffffff;endArrow=none;endFill=0;jettySize=auto;orthogonalLoop=1;strokeWidth=1;dashed=1;fontSize=14;rounded=0;exitX=1;exitY=0.5;exitDx=0;exitDy=0;exitPerimeter=0;entryX=0;entryY=1;entryDx=0;entryDy=-15;entryPerimeter=0;" parent="1" source="oQpSgmVscmDd02kqlDEu-147" target="oQpSgmVscmDd02kqlDEu-144" edge="1">
          <mxGeometry width="60" height="60" relative="1" as="geometry">
            <mxPoint x="1900" y="540" as="sourcePoint" />
            <mxPoint x="1960" y="480" as="targetPoint" />
          </mxGeometry>
        </mxCell>
        <mxCell id="oQpSgmVscmDd02kqlDEu-153" value="Push , and pull" style="text;html=1;align=center;verticalAlign=middle;resizable=0;points=[];autosize=1;strokeColor=none;fillColor=none;" parent="1" vertex="1">
          <mxGeometry x="2190" y="570" width="100" height="30" as="geometry" />
        </mxCell>
        <mxCell id="oQpSgmVscmDd02kqlDEu-155" value="MongoDB" style="shape=datastore;whiteSpace=wrap;html=1;" parent="1" vertex="1">
          <mxGeometry x="2560" y="510" width="60" height="60" as="geometry" />
        </mxCell>
        <mxCell id="oQpSgmVscmDd02kqlDEu-156" value="" style="html=1;labelBackgroundColor=#ffffff;endArrow=none;endFill=0;jettySize=auto;orthogonalLoop=1;strokeWidth=1;dashed=1;fontSize=14;rounded=0;entryX=0;entryY=0.7;entryDx=0;entryDy=0;exitX=1;exitY=0.5;exitDx=0;exitDy=0;" parent="1" source="oQpSgmVscmDd02kqlDEu-98" target="oQpSgmVscmDd02kqlDEu-155" edge="1">
          <mxGeometry width="60" height="60" relative="1" as="geometry">
            <mxPoint x="1990" y="600" as="sourcePoint" />
            <mxPoint x="2050" y="540" as="targetPoint" />
          </mxGeometry>
        </mxCell>
        <mxCell id="oQpSgmVscmDd02kqlDEu-157" value="MongoDB" style="shape=datastore;whiteSpace=wrap;html=1;" parent="1" vertex="1">
          <mxGeometry x="2560" y="600" width="60" height="60" as="geometry" />
        </mxCell>
        <mxCell id="oQpSgmVscmDd02kqlDEu-158" value="" style="html=1;labelBackgroundColor=#ffffff;endArrow=none;endFill=0;jettySize=auto;orthogonalLoop=1;strokeWidth=1;dashed=1;fontSize=14;rounded=0;entryX=0;entryY=0.7;entryDx=0;entryDy=0;exitX=1;exitY=0.25;exitDx=0;exitDy=0;" parent="1" source="oQpSgmVscmDd02kqlDEu-99" target="oQpSgmVscmDd02kqlDEu-157" edge="1">
          <mxGeometry width="60" height="60" relative="1" as="geometry">
            <mxPoint x="2350" y="570" as="sourcePoint" />
            <mxPoint x="2410" y="580" as="targetPoint" />
          </mxGeometry>
        </mxCell>
        <mxCell id="oQpSgmVscmDd02kqlDEu-160" value="MongoDB" style="shape=datastore;whiteSpace=wrap;html=1;" parent="1" vertex="1">
          <mxGeometry x="2421" y="920" width="60" height="60" as="geometry" />
        </mxCell>
        <mxCell id="oQpSgmVscmDd02kqlDEu-161" value="" style="html=1;labelBackgroundColor=#ffffff;endArrow=none;endFill=0;jettySize=auto;orthogonalLoop=1;strokeWidth=1;dashed=1;fontSize=14;rounded=0;entryX=0.15;entryY=0.95;entryDx=0;entryDy=0;exitX=0.25;exitY=0;exitDx=0;exitDy=0;entryPerimeter=0;" parent="1" source="oQpSgmVscmDd02kqlDEu-102" target="oQpSgmVscmDd02kqlDEu-160" edge="1">
          <mxGeometry width="60" height="60" relative="1" as="geometry">
            <mxPoint x="2340" y="655" as="sourcePoint" />
            <mxPoint x="2410" y="672" as="targetPoint" />
          </mxGeometry>
        </mxCell>
      </root>
    </mxGraphModel>
  </diagram>
</mxfile>
